#!OML:ASF X:\für Bonn\!DataBase\2005_08_11_Bastian_Final\c3d\Bastian.ASF
:FULLY-SPECIFIED
:DEGREES
62
root 4.85371 15.7047 -14.3795 166.275 -21.364 -178.609
lowerback 8.87504 -5.33098 -1.84711
upperback 7.40715 -8.09192 2.05083
thorax 3.33755 -4.54879 3.56462
lowerneck 4.9164 -10.9996 -8.81045
upperneck -0.204442 -15.2913 10.399
head 0.632521 -7.79498 4.42726
rclavicle 4.34344e-014 -3.97569e-015
rhumerus 0.158731 32.3512 -82.2063
rradius 121.843
rwrist 6.6362
rhand -26.1689 8.90545
rfingers 7.12502
rthumb 0.382595 -21.0739
lclavicle 4.34344e-014 -3.97569e-015
lhumerus 2.5252 -47.3836 95.6181
lradius 115.724
lwrist 37.721
lhand -16.6273 -25.9139
lfingers 7.12502
lthumb 9.59492 3.84758
rfemur -33.05 -9.64576 14.4064
rtibia 56.2167
rfoot -4.59413 -2.13186
rtoes -13.8948
lfemur 21.6161 -12.2463 -10.9902
ltibia 50.3492
lfoot -3.94298 -17.1591
ltoes -27.5315
63
root 4.88211 15.7544 -14.5177 165.812 -21.4675 -178.437
lowerback 9.17422 -5.07253 -1.34435
upperback 7.51468 -7.73232 1.96735
thorax 3.17861 -4.35197 3.21909
lowerneck 5.02815 -11.2174 -8.63369
upperneck -0.050741 -15.5987 10.2889
head 0.667397 -7.95094 4.36113
rclavicle 4.1049e-014 -3.18055e-014
rhumerus -0.198975 32.1281 -82.5658
rradius 121.624
rwrist 6.46602
rhand -25.7652 9.05241
rfingers 7.12502
rthumb 0.77248 -20.9259
lclavicle 4.1049e-014 -3.18055e-014
lhumerus 1.56654 -47.3175 95.2654
lradius 115.657
lwrist 38.3296
lhand -16.6639 -26.0273
lfingers 7.12502
lthumb 9.55966 3.73582
rfemur -31.9407 -9.82655 14.6734
rtibia 55.9351
rfoot -4.44945 -2.11278
rtoes -13.8684
lfemur 18.7028 -12.207 -10.7229
ltibia 55.9162
lfoot 2.50308 -15.866
ltoes -28.8591
64
root 4.91071 15.811 -14.6538 165.282 -21.5636 -178.241
lowerback 9.53586 -4.82606 -0.788785
upperback 7.64353 -7.38572 1.83725
thorax 3.00442 -4.16024 2.79839
lowerneck 5.1682 -11.4115 -8.40334
upperneck 0.0944838 -15.8788 10.2643
head 0.694683 -8.09665 4.31565
rclavicle 1.03318e-013 -5.40694e-014
rhumerus -0.534982 31.948 -82.9869
rradius 121.427
rwrist 6.15417
rhand -25.4123 9.13162
rfingers 7.12502
rthumb 1.1134 -20.8452
lclavicle 1.03318e-013 -5.40694e-014
lhumerus 0.546035 -47.172 94.8081
lradius 115.573
lwrist 38.9182
lhand -16.6293 -26.1202
lfingers 7.12502
lthumb 9.59301 3.6414
rfemur -30.7052 -9.91234 14.9522
rtibia 55.5471
rfoot -4.32578 -2.18462
rtoes -13.0143
lfemur 15.5914 -12.0896 -10.4161
ltibia 61.6136
lfoot 8.51854 -14.8283
ltoes -30.9771
65
root 4.93959 15.8977 -14.7898 164.708 -21.6735 -178.074
lowerback 9.93806 -4.57669 -0.258825
upperback 7.81208 -7.04086 1.67694
thorax 2.85929 -3.97358 2.35709
lowerneck 5.27608 -11.615 -8.14021
upperneck 0.224718 -16.1673 10.2682
head 0.722629 -8.24622 4.27215
rclavicle 3.94588e-014 -2.54444e-014
rhumerus -0.781212 31.7902 -83.4022
rradius 121.262
rwrist 5.77931
rhand -25.1405 9.15434
rfingers 7.12502
rthumb 1.3759 -20.821
lclavicle 3.94588e-014 -2.54444e-014
lhumerus -0.385624 -47.0321 94.1727
lradius 115.28
lwrist 39.4943
lhand -16.5794 -26.2819
lfingers 7.12502
lthumb 9.64119 3.47745
rfemur -29.2214 -9.90104 15.1933
rtibia 54.9913
rfoot -4.35091 -2.26121
rtoes -11.6862
lfemur 12.3958 -11.9272 -10.2096
ltibia 67.3107
lfoot 14.252 -14.0913
ltoes -33.201
66
root 4.96783 15.9473 -14.9182 164.046 -21.7635 -177.874
lowerback 10.4249 -4.3237 0.302184
upperback 7.99312 -6.69038 1.51193
thorax 2.68766 -3.78548 1.89602
lowerneck 5.40003 -11.8231 -7.90771
upperneck 0.422653 -16.4668 9.90966
head 0.825173 -8.40623 4.5847
rclavicle 7.74266e-014 -2.42517e-014
rhumerus -0.878343 31.659 -83.7319
rradius 121.062
rwrist 5.39353
rhand -25.023 9.07909
rfingers 7.12502
rthumb 1.48934 -20.8955
lclavicle 7.74266e-014 -2.42517e-014
lhumerus -1.49415 -46.7938 93.6075
lradius 115.042
lwrist 40.0509
lhand -16.3796 -26.2472
lfingers 7.12502
lthumb 9.83397 3.50314
rfemur -27.8091 -9.78589 15.4413
rtibia 54.4875
rfoot -4.3925 -2.42378
rtoes -10.5138
lfemur 9.0412 -11.707 -9.95787
ltibia 73.2131
lfoot 18.8985 -13.878
ltoes -35.9433
67
root 4.99604 15.9891 -15.0428 163.292 -21.8488 -177.696
lowerback 10.9934 -4.05577 0.837754
upperback 8.22373 -6.32875 1.32704
thorax 2.53597 -3.59782 1.42581
lowerneck 5.52484 -12.0303 -7.57857
upperneck 0.540832 -16.7577 9.93025
head 0.842879 -8.55824 4.52919
rclavicle -2.96189e-014 0
rhumerus -0.815415 31.5473 -83.9663
rradius 120.869
rwrist 5.01312
rhand -25.094 8.86264
rfingers 7.12502
rthumb 1.42075 -21.1124
lclavicle -2.96189e-014 0
lhumerus -2.71669 -46.5173 93.0315
lradius 114.787
lwrist 40.5281
lhand -16.0761 -26.1472
lfingers 7.12502
lthumb 10.1268 3.58906
rfemur -26.2789 -9.57212 15.6554
rtibia 53.9567
rfoot -4.53368 -2.69966
rtoes -9.5303
lfemur 5.6757 -11.408 -9.75748
ltibia 79.1108
lfoot 22.4081 -14.0297
ltoes -38.4102
68
root 5.0237 16.0257 -15.1658 162.378 -21.9001 -177.546
lowerback 11.7174 -3.76572 1.3539
upperback 8.50038 -5.94579 1.10706
thorax 2.35957 -3.4057 0.932156
lowerneck 5.67706 -12.2381 -7.23395
upperneck 0.685613 -17.059 10.0138
head 0.869829 -8.7183 4.49389
rclavicle 6.83819e-014 -4.13472e-014
rhumerus -0.652609 31.3999 -84.174
rradius 120.627
rwrist 4.79422
rhand -25.2911 8.55155
rfingers 7.12502
rthumb 1.23046 -21.4247
lclavicle 6.83819e-014 -4.13472e-014
lhumerus -4.08491 -46.1954 92.4741
lradius 114.495
lwrist 40.9602
lhand -15.6819 -26.0009
lfingers 7.12502
lthumb 10.507 3.71654
rfemur -24.5805 -9.28581 15.8315
rtibia 53.4681
rfoot -4.79655 -3.01215
rtoes -8.73095
lfemur 2.44679 -10.9889 -9.61701
ltibia 84.9201
lfoot 24.6141 -14.6063
ltoes -39.0807
69
root 5.05119 16.0593 -15.2858 161.334 -21.9321 -177.383
lowerback 12.542 -3.46633 1.85375
upperback 8.8189 -5.56 0.901365
thorax 2.19116 -3.21964 0.458696
lowerneck 5.91807 -12.4474 -6.90232
upperneck 0.767417 -17.3621 10.1114
head 0.862871 -8.88189 4.47639
rclavicle 2.21148e-014 -1.82882e-014
rhumerus -0.332809 31.2813 -84.2597
rradius 120.257
rwrist 4.65415
rhand -25.6963 8.23199
rfingers 7.12502
rthumb 0.8391 -21.7461
lclavicle 2.21148e-014 -1.82882e-014
lhumerus -5.56406 -45.7975 91.945
lradius 114.201
lwrist 41.2823
lhand -15.1271 -25.8053
lfingers 7.12502
lthumb 11.0422 3.88429
rfemur -22.7364 -8.97251 16.0237
rtibia 52.9271
rfoot -5.07078 -3.31959
rtoes -7.99133
lfemur -0.666025 -10.3889 -9.4548
ltibia 90.5126
lfoot 25.2334 -15.7594
ltoes -39.5942
